# xmcd
#
# Track frame offsets: 
#        150
#        16278
#        36710
#        52668
#        74835
#        98603
#        115805
#        133885
#        148655
#        165103
#        183318
#        208990
#        227778
#        240943
#        259658
#        275608
#        296980
#
# Disc length: 4230 seconds
#
# Revision: 1
# Processed by: cddbd v1.5.2PL0 Copyright (c) Steve Scherf et al.
# Submitted via: ExactAudioCopy v0.95a3
#
DISCID=00108411
DTITLE=Various Artist - Аркадий Укупник. The Best Vol.1
DYEAR=1994
DGENRE=Pop
TTITLE0=Аркадий Укупник - Маргаритка
TTITLE1=Каститис Кербедис - Амазонка
TTITLE2=Евгений Куликов - Давай Не Будем
TTITLE3=Кристина Орбакайте - Почему?
TTITLE4=Эгидиус Сипавичус - Музыка Дождя
TTITLE5=Юлия - Шестнадцатилетний Капитан
TTITLE6=Алёна Апина - Лёха
TTITLE7=Александр Буйнов - Руки В Брюки
TTITLE8=Анжелика Варум - Обида
TTITLE9=Сергей Челобанов - Блюз
TTITLE10=Лариса Долина - А Я Смеюсь
TTITLE11=Вейланд Родд - Карнавал
TTITLE12=Ирина Понаровская - Игра В Четыре Руки
TTITLE13=Аркадий Укупник - Летит Звезда
TTITLE14=Сергей Чумаков - Ревность
TTITLE15=Лариса Долина - Ты Никогда Не Придёшь
TTITLE16=Ирина Понаровская - Эй, Гражданка У Окна!
EXTD=
EXTT0=
EXTT1=
EXTT2=
EXTT3=
EXTT4=
EXTT5=
EXTT6=
EXTT7=
EXTT8=
EXTT9=
EXTT10=
EXTT11=
EXTT12=
EXTT13=
EXTT14=
EXTT15=
EXTT16=
PLAYORDER=
